<svg width="255" height="282" viewBox="0 0 255 282" fill="none" xmlns="http://www.w3.org/2000/svg">
<path d="M52.4118 159.844C50.6322 159.844 49.189 158.4 49.189 156.621C49.189 114.833 83.1868 80.8361 124.975 80.8361C126.755 80.8361 128.198 82.2792 128.198 84.0588C128.198 85.8384 126.755 87.2815 124.975 87.2815C86.7408 87.2815 55.6345 118.387 55.6345 156.621C55.6345 158.4 54.1913 159.844 52.4118 159.844Z" fill="white"/>
<path d="M135.165 33.9165C133.386 33.9165 131.943 32.4734 131.943 30.6938C131.943 27.9429 124.181 20.1813 121.429 20.1813C119.65 20.1813 118.207 18.7382 118.207 16.9586C118.207 15.179 119.65 13.7359 121.429 13.7359C124.18 13.7359 131.943 5.97363 131.943 3.22272C131.943 1.44313 133.386 0 135.165 0C136.945 0 138.388 1.44313 138.388 3.22272C138.388 5.97363 146.15 13.7359 148.901 13.7359C150.681 13.7359 152.124 15.179 152.124 16.9586C152.124 18.7382 150.681 20.1813 148.901 20.1813C146.15 20.1813 138.388 27.9429 138.388 30.6938C138.388 32.474 136.945 33.9165 135.165 33.9165ZM128.966 16.9586C131.257 18.6608 133.464 20.8671 135.166 23.1591C136.868 20.8677 139.075 18.6608 141.367 16.9586C139.075 15.2563 136.868 13.0494 135.166 10.7581C133.464 13.0501 131.257 15.2563 128.966 16.9586Z" fill="white"/>
<path d="M22.6919 112.196C20.9123 112.196 19.4691 110.753 19.4691 108.973C19.4691 104.308 8.03172 92.871 3.36716 92.871C1.58758 92.871 0.144444 91.4278 0.144444 89.6483C0.144444 87.8687 1.58758 86.4255 3.36716 86.4255C8.03237 86.4255 19.4691 74.9881 19.4691 70.3235C19.4691 68.544 20.9123 67.1008 22.6919 67.1008C24.4715 67.1008 25.9146 68.544 25.9146 70.3235C25.9146 74.9888 37.3514 86.4255 42.0166 86.4255C43.7962 86.4255 45.2393 87.8687 45.2393 89.6483C45.2393 91.4278 43.7962 92.871 42.0166 92.871C37.3514 92.871 25.9146 104.308 25.9146 108.973C25.9146 110.753 24.4715 112.196 22.6919 112.196ZM11.7204 89.6483C15.832 92.383 19.9571 96.5081 22.6919 100.619C25.4267 96.5081 29.5517 92.3824 33.6626 89.6483C29.5517 86.9135 25.426 82.7884 22.6919 78.6768C19.9571 82.7884 15.832 86.9135 11.7204 89.6483Z" fill="white"/>
<path d="M235.264 136.144C233.485 136.144 232.042 134.701 232.042 132.922C232.042 131.865 230.529 128.864 227.166 125.5C223.802 122.137 220.801 120.625 219.745 120.625C217.965 120.625 216.522 119.181 216.522 117.402C216.522 115.622 217.965 114.179 219.745 114.179C220.802 114.179 223.802 112.666 227.166 109.304C230.53 105.941 232.042 102.94 232.042 101.883C232.042 100.104 233.485 98.6604 235.265 98.6604C237.045 98.6604 238.488 100.104 238.488 101.883C238.488 102.94 240 105.941 243.364 109.304C246.727 112.667 249.728 114.179 250.784 114.179C252.564 114.179 254.007 115.622 254.007 117.402C254.007 119.181 252.564 120.625 250.784 120.625C249.728 120.625 246.727 122.137 243.364 125.5C240 128.864 238.488 131.865 238.488 132.922C238.487 134.701 237.044 136.144 235.264 136.144ZM227.607 117.402C230.459 119.434 233.233 122.207 235.264 125.059C237.296 122.207 240.069 119.433 242.921 117.402C240.069 115.37 237.296 112.597 235.264 109.745C233.232 112.597 230.459 115.37 227.607 117.402Z" fill="white"/>
<path d="M174.824 69.0991C173.045 69.0991 171.601 67.656 171.601 65.8764C171.601 59.9872 157.8 46.1849 151.911 46.1849C150.132 46.1849 148.689 44.7418 148.689 42.9622C148.689 41.1826 150.132 39.7395 151.911 39.7395C157.8 39.7395 171.601 25.9372 171.601 20.048C171.601 18.2685 173.045 16.8253 174.824 16.8253C176.604 16.8253 178.047 18.2685 178.047 20.048C178.047 25.9372 191.85 39.7395 197.74 39.7395C199.519 39.7395 200.962 41.1826 200.962 42.9622C200.962 44.7418 199.519 46.1849 197.74 46.1849C191.85 46.1849 178.047 59.9872 178.047 65.8764C178.047 67.656 176.604 69.0991 174.824 69.0991ZM160.801 42.9622C166.089 46.2803 171.507 51.6977 174.825 56.9868C178.143 51.6977 183.561 46.2803 188.85 42.9622C183.561 39.6441 178.143 34.2267 174.825 28.9376C171.507 34.2267 166.089 39.6441 160.801 42.9622Z" fill="white"/>
<path d="M192.382 259.795H190.558L181.455 228.892C202.918 212.081 216.736 185.935 216.736 156.621C216.736 106.024 175.572 64.8599 124.974 64.8599C74.3766 64.8599 33.2121 106.024 33.2121 156.621C33.2121 185.935 47.0299 212.081 68.4932 228.892L59.3903 259.795H57.5669C52.0057 259.795 47.4817 264.32 47.4817 269.88V271.781C47.4817 277.342 52.0064 281.866 57.5669 281.866H192.38C197.941 281.866 202.466 277.342 202.466 271.781V269.88C202.467 264.32 197.943 259.795 192.382 259.795ZM39.6588 156.621C39.6588 109.578 77.9312 71.3053 124.975 71.3053C172.019 71.3053 210.291 109.578 210.291 156.621C210.291 203.664 172.019 241.937 124.975 241.937C77.9312 241.937 39.6588 203.664 39.6588 156.621ZM74.0317 232.905C88.6158 242.676 106.14 248.383 124.975 248.383C143.81 248.383 161.335 242.676 175.919 232.905L183.84 259.795H66.1109L74.0317 232.905ZM196.022 271.782C196.022 273.789 194.389 275.421 192.382 275.421H57.5681C55.561 275.421 53.9284 273.789 53.9284 271.782V269.881C53.9284 267.874 55.561 266.241 57.5681 266.241H192.382C194.389 266.241 196.021 267.874 196.021 269.881V271.782H196.022Z" fill="white"/>
</svg>
