<svg width="430" height="272" viewBox="0 0 430 272" fill="none" xmlns="http://www.w3.org/2000/svg">
<path d="M-68.9693 228.175C-71.058 325.078 33.6246 424 164.293 424C294.961 424 503.051 232.958 404.221 228.175C213.79 218.957 148.531 121.639 167.626 52.6525C201.823 -70.8975 -64.8566 37.3705 -68.9693 228.175Z" fill="#3F3D56"/>
<path d="M128.915 151.425L127.321 150.174L128.335 148.208L127.901 147.867L126.887 149.833L125.294 148.582L125.017 149.118L126.611 150.369L125.597 152.335L126.031 152.676L127.045 150.71L128.638 151.961L128.915 151.425Z" fill="#6C63FF"/>
<path d="M33.046 169.698L31.4528 168.447L32.4669 166.481L32.0319 166.141L31.0187 168.107L29.4256 166.855L29.1489 167.391L30.742 168.642L29.728 170.608L30.1629 170.95L31.1762 168.984L32.7693 170.234L33.046 169.698Z" fill="#6C63FF"/>
<path d="M166.327 191.318L164.096 189.568L165.515 186.815L164.907 186.338L163.488 189.09L161.258 187.338L160.871 188.09L163.101 189.84L161.682 192.592L162.29 193.07L163.709 190.318L165.939 192.069L166.327 191.318Z" fill="white"/>
<path d="M86.0464 227.693C87.3378 227.693 88.3846 226.402 88.3846 224.808C88.3846 223.215 87.3378 221.923 86.0464 221.923C84.755 221.923 83.7081 223.215 83.7081 224.808C83.7081 226.402 84.755 227.693 86.0464 227.693Z" fill="#6C63FF"/>
<path d="M153.856 121.899C155.147 121.899 156.194 120.607 156.194 119.014C156.194 117.42 155.147 116.129 153.856 116.129C152.565 116.129 151.518 117.42 151.518 119.014C151.518 120.607 152.565 121.899 153.856 121.899Z" fill="#6C63FF"/>
<path d="M130.473 236.349C131.334 236.349 132.032 235.488 132.032 234.426C132.032 233.364 131.334 232.502 130.473 232.502C129.612 232.502 128.914 233.364 128.914 234.426C128.914 235.488 129.612 236.349 130.473 236.349Z" fill="#6C63FF"/>
<path d="M51.752 216.152C52.6129 216.152 53.3109 215.291 53.3109 214.229C53.3109 213.167 52.6129 212.305 51.752 212.305C50.8911 212.305 50.1932 213.167 50.1932 214.229C50.1932 215.291 50.8911 216.152 51.752 216.152Z" fill="#B72B47"/>
<path d="M149.179 60.3463C150.04 60.3463 150.738 59.4851 150.738 58.4228C150.738 57.3605 150.04 56.4993 149.179 56.4993C148.319 56.4993 147.621 57.3605 147.621 58.4228C147.621 59.4851 148.319 60.3463 149.179 60.3463Z" fill="#B72B47"/>
<path d="M85.267 149.79C86.1279 149.79 86.8258 148.929 86.8258 147.867C86.8258 146.805 86.1279 145.943 85.267 145.943C84.406 145.943 83.7081 146.805 83.7081 147.867C83.7081 148.929 84.406 149.79 85.267 149.79Z" fill="#6C63FF"/>
<path d="M104.752 85.3522C105.613 85.3522 106.311 84.491 106.311 83.4287C106.311 82.3663 105.613 81.5051 104.752 81.5051C103.891 81.5051 103.193 82.3663 103.193 83.4287C103.193 84.491 103.891 85.3522 104.752 85.3522Z" fill="white"/>
<path d="M337.799 259.431C339.09 259.431 340.137 258.14 340.137 256.546C340.137 254.953 339.09 253.661 337.799 253.661C336.507 253.661 335.461 254.953 335.461 256.546C335.461 258.14 336.507 259.431 337.799 259.431Z" fill="#6C63FF"/>
<path d="M182.694 270.011C183.986 270.011 185.033 268.719 185.033 267.126C185.033 265.532 183.986 264.24 182.694 264.24C181.403 264.24 180.356 265.532 180.356 267.126C180.356 268.719 181.403 270.011 182.694 270.011Z" fill="#6C63FF"/>
<path d="M237.254 233.464C238.545 233.464 239.592 232.172 239.592 230.579C239.592 228.985 238.545 227.694 237.254 227.694C235.962 227.694 234.915 228.985 234.915 230.579C234.915 232.172 235.962 233.464 237.254 233.464Z" fill="white"/>
</svg>
