<svg width="1224" height="610" viewBox="0 0 1224 610" fill="none" xmlns="http://www.w3.org/2000/svg">
<path d="M0.0753518 328.27C-5.04773 467.684 251.712 610 572.206 610C892.7 610 1403.09 335.152 1160.69 328.27C693.609 315.009 533.548 175 580.382 75.75C664.258 -101.999 10.1627 53.7642 0.0753518 328.27Z" fill="#3F3D56"/>
<path d="M485.433 217.852L481.525 216.052L484.012 213.224L482.946 212.734L480.46 215.562L476.553 213.762L475.874 214.533L479.782 216.333L477.295 219.161L478.361 219.652L480.847 216.824L484.754 218.623L485.433 217.852Z" fill="#6C63FF"/>
<path d="M776.013 422.635L772.105 420.835L774.592 418.007L773.526 417.517L771.041 420.345L767.133 418.545L766.454 419.316L770.362 421.116L767.875 423.944L768.941 424.436L771.427 421.607L775.334 423.406L776.013 422.635Z" fill="#6C63FF"/>
<path d="M305.732 397.729L301.824 395.929L304.311 393.101L303.244 392.611L300.759 395.439L296.852 393.639L296.173 394.41L300.08 396.21L297.593 399.038L298.66 399.53L301.145 396.701L305.053 398.5L305.732 397.729Z" fill="#6C63FF"/>
<path d="M657.487 530.562L653.579 528.762L656.066 525.933L655 525.444L652.514 528.272L648.607 526.472L647.928 527.242L651.836 529.043L649.348 531.871L650.415 532.362L652.9 529.534L656.808 531.333L657.487 530.562Z" fill="#6C63FF"/>
<path d="M330.584 479.366L326.676 477.566L329.164 474.738L328.097 474.248L325.612 477.076L321.704 475.276L321.025 476.046L324.933 477.847L322.446 480.675L323.513 481.166L325.998 478.338L329.905 480.137L330.584 479.366Z" fill="#6C63FF"/>
<path d="M1118.21 411.566L1114.3 409.766L1116.79 406.938L1115.72 406.448L1113.24 409.276L1109.33 407.476L1108.65 408.247L1112.56 410.047L1110.07 412.875L1111.14 413.366L1113.62 410.538L1117.53 412.337L1118.21 411.566Z" fill="#6C63FF"/>
<path d="M250.292 244.142L246.385 242.342L248.872 239.514L247.805 239.024L245.32 241.852L241.412 240.052L240.734 240.823L244.641 242.623L242.154 245.451L243.221 245.942L245.706 243.114L249.613 244.913L250.292 244.142Z" fill="#6C63FF"/>
<path d="M577.195 275.245L571.723 272.727L575.205 268.767L573.713 268.081L570.232 272.039L564.763 269.52L563.813 270.6L569.284 273.119L565.803 277.079L567.294 277.767L570.775 273.806L576.245 276.326L577.195 275.245Z" fill="white"/>
<path d="M380.288 327.578C383.456 327.578 386.023 325.72 386.023 323.427C386.023 321.134 383.456 319.276 380.288 319.276C377.121 319.276 374.553 321.134 374.553 323.427C374.553 325.72 377.121 327.578 380.288 327.578Z" fill="#6C63FF"/>
<path d="M156.618 327.578C159.785 327.578 162.353 325.72 162.353 323.427C162.353 321.134 159.785 319.276 156.618 319.276C153.451 319.276 150.883 321.134 150.883 323.427C150.883 325.72 153.451 327.578 156.618 327.578Z" fill="#6C63FF"/>
<path d="M546.607 175.374C549.775 175.374 552.343 173.516 552.343 171.223C552.343 168.931 549.775 167.072 546.607 167.072C543.44 167.072 540.872 168.931 540.872 171.223C540.872 173.516 543.44 175.374 546.607 175.374Z" fill="#6C63FF"/>
<path d="M493.079 428.586C496.247 428.586 498.814 426.727 498.814 424.435C498.814 422.142 496.247 420.284 493.079 420.284C489.912 420.284 487.344 422.142 487.344 424.435C487.344 426.727 489.912 428.586 493.079 428.586Z" fill="#6C63FF"/>
<path d="M489.256 340.031C491.367 340.031 493.079 338.792 493.079 337.264C493.079 335.735 491.367 334.496 489.256 334.496C487.144 334.496 485.432 335.735 485.432 337.264C485.432 338.792 487.144 340.031 489.256 340.031Z" fill="#6C63FF"/>
<path d="M881.157 461.794C883.269 461.794 884.98 460.555 884.98 459.027C884.98 457.498 883.269 456.259 881.157 456.259C879.045 456.259 877.333 457.498 877.333 459.027C877.333 460.555 879.045 461.794 881.157 461.794Z" fill="#B72B47"/>
<path d="M296.173 310.974C298.285 310.974 299.997 309.735 299.997 308.207C299.997 306.678 298.285 305.439 296.173 305.439C294.062 305.439 292.35 306.678 292.35 308.207C292.35 309.735 294.062 310.974 296.173 310.974Z" fill="#B72B47"/>
<path d="M535.137 86.8193C537.249 86.8193 538.961 85.5803 538.961 84.052C538.961 82.5236 537.249 81.2846 535.137 81.2846C533.026 81.2846 531.314 82.5236 531.314 84.052C531.314 85.5803 533.026 86.8193 535.137 86.8193Z" fill="#B72B47"/>
<path d="M378.377 215.501C380.488 215.501 382.2 214.262 382.2 212.733C382.2 211.205 380.488 209.966 378.377 209.966C376.265 209.966 374.553 211.205 374.553 212.733C374.553 214.262 376.265 215.501 378.377 215.501Z" fill="#6C63FF"/>
<path d="M426.169 122.795C428.281 122.795 429.993 121.556 429.993 120.027C429.993 118.499 428.281 117.26 426.169 117.26C424.058 117.26 422.346 118.499 422.346 120.027C422.346 121.556 424.058 122.795 426.169 122.795Z" fill="white"/>
<path d="M997.771 373.239C1000.94 373.239 1003.51 371.381 1003.51 369.088C1003.51 366.796 1000.94 364.937 997.771 364.937C994.604 364.937 992.036 366.796 992.036 369.088C992.036 371.381 994.604 373.239 997.771 373.239Z" fill="#6C63FF"/>
<path d="M617.341 388.46C620.508 388.46 623.076 386.601 623.076 384.309C623.076 382.016 620.508 380.157 617.341 380.157C614.174 380.157 611.606 382.016 611.606 384.309C611.606 386.601 614.174 388.46 617.341 388.46Z" fill="#6C63FF"/>
<path d="M519.843 496.386C530.402 496.386 538.961 490.191 538.961 482.549C538.961 474.907 530.402 468.713 519.843 468.713C509.285 468.713 500.726 474.907 500.726 482.549C500.726 490.191 509.285 496.386 519.843 496.386Z" fill="#6C63FF"/>
<path d="M751.16 335.88C754.328 335.88 756.896 334.022 756.896 331.729C756.896 329.436 754.328 327.578 751.16 327.578C747.993 327.578 745.425 329.436 745.425 331.729C745.425 334.022 747.993 335.88 751.16 335.88Z" fill="white"/>
</svg>
