<svg width="418" height="191" viewBox="0 0 418 191" fill="none" xmlns="http://www.w3.org/2000/svg">
<path fill-rule="evenodd" clip-rule="evenodd" d="M471.758 -4H295.439C295.543 -3.83482 295.633 -3.65781 295.703 -3.4704C296.242 -2.04862 295.53 -0.567055 294.114 -0.161235C292.697 0.244585 291.113 -0.579015 290.574 -2.0008C290.31 -2.69736 290.347 -3.40827 290.619 -4H115.218L115.18 -3.82242L114.554 -4H112.915L112.562 -2.36576L111.97 -2.53286L112.287 -4H29.4403C-7.17086 48.3068 -14.5733 89.4605 35.8016 77.1069C125.805 55.0351 196.256 53.593 247.69 64.2213C317.779 78.7043 352.556 115.601 353.376 153.253C354.601 209.49 415.014 197.698 470.989 151.925L471.758 -4ZM438.715 33.8419L440.885 34.4577L440.437 36.5303L441.029 36.6975L441.477 34.6251L443.647 35.2408L443.769 34.6759L441.599 34.0601L442.047 31.9875L441.455 31.8195L441.007 33.8919L438.838 33.277L438.715 33.8419ZM387.238 10.8658L384.2 10.005L384.371 9.21307L387.409 10.0749L388.036 7.17299L388.864 7.40843L388.237 10.3104L391.276 11.1711L391.105 11.9631L388.067 11.1012L387.44 14.0023L386.612 13.7677L387.238 10.8658ZM421.336 68.0232C419.919 68.4291 419.208 69.9106 419.746 71.3324C420.284 72.7542 421.869 73.5778 423.286 73.1719C424.702 72.7661 425.414 71.2846 424.875 69.8628C424.337 68.441 422.752 67.6174 421.336 68.0232ZM446.204 123.679C445.846 122.731 446.32 121.744 447.264 121.473C448.209 121.202 449.265 121.752 449.624 122.699C449.983 123.647 449.509 124.635 448.564 124.905C447.62 125.176 446.563 124.627 446.204 123.679ZM173.108 3.11739C171.692 3.52321 170.98 5.00476 171.518 6.42652C172.057 7.84829 173.642 8.67188 175.058 8.26606C176.474 7.86025 177.186 6.3787 176.648 4.95693C176.109 3.53516 174.525 2.71157 173.108 3.11739Z" fill="#3F3D56"/>
</svg>
